<mxfile host="app.diagrams.net" modified="2022-03-30T07:48:04.712Z" agent="5.0 (Windows NT 10.0; Win64; x64) AppleWebKit/537.36 (KHTML, like Gecko) Chrome/97.0.4692.99 Safari/537.36" etag="fREHxWMBzi511ObXWoHu" version="17.1.2" type="github">
  <diagram id="C5RBs43oDa-KdzZeNtuy" name="Page-1">
    <mxGraphModel dx="3197" dy="1287" grid="1" gridSize="10" guides="1" tooltips="1" connect="1" arrows="1" fold="1" page="1" pageScale="1" pageWidth="827" pageHeight="1169" background="#EEEEEE" math="0" shadow="0">
      <root>
        <mxCell id="WIyWlLk6GJQsqaUBKTNV-0" />
        <mxCell id="WIyWlLk6GJQsqaUBKTNV-1" parent="WIyWlLk6GJQsqaUBKTNV-0" />
        <mxCell id="WIyWlLk6GJQsqaUBKTNV-3" value="监听订单消息" style="rounded=1;whiteSpace=wrap;html=1;fontSize=16;glass=0;strokeWidth=1;shadow=0;fillColor=#dae8fc;strokeColor=#6c8ebf;" parent="WIyWlLk6GJQsqaUBKTNV-1" vertex="1">
          <mxGeometry x="-520" y="270" width="130" height="60" as="geometry" />
        </mxCell>
        <mxCell id="7NL93eEpFQiBZwO9Uzeu-19" value="" style="shape=curlyBracket;whiteSpace=wrap;html=1;rounded=1;sketch=0;fontSize=16;fontColor=#1A1A1A;strokeColor=#000000;fillColor=#FFF2CC;" vertex="1" parent="WIyWlLk6GJQsqaUBKTNV-1">
          <mxGeometry x="98" y="315" width="30" height="200" as="geometry" />
        </mxCell>
        <mxCell id="7NL93eEpFQiBZwO9Uzeu-28" value="默认推送逻辑" style="swimlane;childLayout=stackLayout;horizontal=1;fillColor=none;horizontalStack=1;resizeParent=1;resizeParentMax=0;resizeLast=0;collapsible=0;strokeColor=none;stackBorder=10;stackSpacing=-12;resizable=1;align=center;points=[];fontColor=#000000;rounded=0;sketch=0;fontSize=12;" vertex="1" parent="WIyWlLk6GJQsqaUBKTNV-1">
          <mxGeometry x="118" y="260" width="296" height="75" as="geometry" />
        </mxCell>
        <mxCell id="7NL93eEpFQiBZwO9Uzeu-42" value="" style="edgeStyle=segmentEdgeStyle;endArrow=classic;html=1;rounded=0;sketch=0;fontSize=16;fontColor=#1A1A1A;strokeColor=#182E3E;dashed=1;" edge="1" parent="7NL93eEpFQiBZwO9Uzeu-28">
          <mxGeometry width="50" height="50" relative="1" as="geometry">
            <mxPoint x="50" y="90" as="sourcePoint" />
            <mxPoint x="50" y="310" as="targetPoint" />
          </mxGeometry>
        </mxCell>
        <mxCell id="7NL93eEpFQiBZwO9Uzeu-29" value="主单推送" style="shape=step;perimeter=stepPerimeter;fixedSize=1;points=[];rounded=0;sketch=0;fontSize=12;strokeColor=#ae4132;fillColor=#fad9d5;" vertex="1" parent="7NL93eEpFQiBZwO9Uzeu-28">
          <mxGeometry x="10" y="33" width="100" height="32" as="geometry" />
        </mxCell>
        <mxCell id="7NL93eEpFQiBZwO9Uzeu-30" value="子单推送" style="shape=step;perimeter=stepPerimeter;fixedSize=1;points=[];rounded=0;sketch=0;fontSize=12;strokeColor=#36393d;fillColor=#ffcc99;" vertex="1" parent="7NL93eEpFQiBZwO9Uzeu-28">
          <mxGeometry x="98" y="33" width="100" height="32" as="geometry" />
        </mxCell>
        <mxCell id="7NL93eEpFQiBZwO9Uzeu-31" value="退单推送" style="shape=step;perimeter=stepPerimeter;fixedSize=1;points=[];rounded=0;sketch=0;fontSize=12;strokeColor=#36393d;fillColor=#cdeb8b;" vertex="1" parent="7NL93eEpFQiBZwO9Uzeu-28">
          <mxGeometry x="186" y="33" width="100" height="32" as="geometry" />
        </mxCell>
        <mxCell id="7NL93eEpFQiBZwO9Uzeu-44" value="定制推送逻辑二" style="swimlane;childLayout=stackLayout;horizontal=1;fillColor=none;horizontalStack=1;resizeParent=1;resizeParentMax=0;resizeLast=0;collapsible=0;strokeColor=none;stackBorder=10;stackSpacing=-12;resizable=1;align=center;points=[];fontColor=#000000;rounded=0;sketch=0;fontSize=12;startSize=23;" vertex="1" parent="WIyWlLk6GJQsqaUBKTNV-1">
          <mxGeometry x="118" y="470" width="296" height="75" as="geometry" />
        </mxCell>
        <mxCell id="7NL93eEpFQiBZwO9Uzeu-45" value="主单推送" style="shape=step;perimeter=stepPerimeter;fixedSize=1;points=[];rounded=0;sketch=0;fontSize=12;strokeColor=#36393d;fillColor=#ffcccc;" vertex="1" parent="7NL93eEpFQiBZwO9Uzeu-44">
          <mxGeometry x="10" y="33" width="100" height="32" as="geometry" />
        </mxCell>
        <mxCell id="7NL93eEpFQiBZwO9Uzeu-46" value="" style="shape=step;perimeter=stepPerimeter;fixedSize=1;points=[];rounded=0;sketch=0;fontSize=12;fontColor=#1A1A1A;strokeColor=#FFFFFF;fillColor=#FFFFFF;" vertex="1" parent="7NL93eEpFQiBZwO9Uzeu-44">
          <mxGeometry x="98" y="33" width="100" height="32" as="geometry" />
        </mxCell>
        <mxCell id="7NL93eEpFQiBZwO9Uzeu-49" value="退单推送" style="shape=step;perimeter=stepPerimeter;fixedSize=1;points=[];rounded=0;sketch=0;fontSize=12;strokeColor=#36393d;fillColor=#cdeb8b;" vertex="1" parent="7NL93eEpFQiBZwO9Uzeu-44">
          <mxGeometry x="186" y="33" width="100" height="32" as="geometry" />
        </mxCell>
        <mxCell id="7NL93eEpFQiBZwO9Uzeu-50" value="定制推送逻辑一" style="swimlane;childLayout=stackLayout;horizontal=1;fillColor=none;horizontalStack=1;resizeParent=1;resizeParentMax=0;resizeLast=0;collapsible=0;strokeColor=none;stackBorder=10;stackSpacing=-12;resizable=1;align=center;points=[];fontColor=#000000;rounded=0;sketch=0;fontSize=12;startSize=23;" vertex="1" parent="WIyWlLk6GJQsqaUBKTNV-1">
          <mxGeometry x="118" y="365" width="296" height="75" as="geometry" />
        </mxCell>
        <mxCell id="7NL93eEpFQiBZwO9Uzeu-58" value="主单推送" style="shape=step;perimeter=stepPerimeter;fixedSize=1;points=[];rounded=0;sketch=0;fontSize=12;strokeColor=#36393d;fillColor=#ffcccc;" vertex="1" parent="7NL93eEpFQiBZwO9Uzeu-50">
          <mxGeometry x="10" y="33" width="100" height="32" as="geometry" />
        </mxCell>
        <mxCell id="7NL93eEpFQiBZwO9Uzeu-51" value="主单推送" style="shape=step;perimeter=stepPerimeter;fixedSize=1;points=[];rounded=0;sketch=0;fontSize=12;strokeColor=#36393d;fillColor=#ffcc99;" vertex="1" parent="7NL93eEpFQiBZwO9Uzeu-50">
          <mxGeometry x="98" y="33" width="100" height="32" as="geometry" />
        </mxCell>
        <mxCell id="7NL93eEpFQiBZwO9Uzeu-52" value="" style="shape=step;perimeter=stepPerimeter;fixedSize=1;points=[];rounded=0;sketch=0;fontSize=12;fontColor=#1A1A1A;strokeColor=#FFFFFF;fillColor=#FFFFFF;" vertex="1" parent="7NL93eEpFQiBZwO9Uzeu-50">
          <mxGeometry x="186" y="33" width="100" height="32" as="geometry" />
        </mxCell>
        <mxCell id="7NL93eEpFQiBZwO9Uzeu-59" value="订单状态是否可推送" style="rhombus;whiteSpace=wrap;html=1;shadow=0;fontFamily=Helvetica;fontSize=16;align=center;strokeWidth=1;spacing=6;spacingTop=-4;fillColor=#FFF2CC;strokeColor=#FFF2CC;" vertex="1" parent="WIyWlLk6GJQsqaUBKTNV-1">
          <mxGeometry x="-190" y="260" width="100" height="80" as="geometry" />
        </mxCell>
        <mxCell id="7NL93eEpFQiBZwO9Uzeu-60" value="是" style="rounded=0;html=1;jettySize=auto;orthogonalLoop=1;fontSize=11;endArrow=classic;endFill=1;endSize=8;strokeWidth=1;shadow=0;labelBackgroundColor=none;edgeStyle=orthogonalEdgeStyle;strokeColor=#182E3E;fontColor=#1A1A1A;exitX=1;exitY=0.5;exitDx=0;exitDy=0;" edge="1" parent="WIyWlLk6GJQsqaUBKTNV-1" source="7NL93eEpFQiBZwO9Uzeu-59">
          <mxGeometry y="20" relative="1" as="geometry">
            <mxPoint as="offset" />
            <mxPoint x="-450" y="230" as="sourcePoint" />
            <mxPoint x="-40" y="300" as="targetPoint" />
          </mxGeometry>
        </mxCell>
        <mxCell id="7NL93eEpFQiBZwO9Uzeu-61" value="定义推送&lt;br&gt;步骤" style="rounded=1;whiteSpace=wrap;html=1;fontSize=16;glass=0;strokeWidth=1;shadow=0;fillColor=#dae8fc;strokeColor=#6c8ebf;" vertex="1" parent="WIyWlLk6GJQsqaUBKTNV-1">
          <mxGeometry x="-40" y="280" width="96" height="40" as="geometry" />
        </mxCell>
        <mxCell id="7NL93eEpFQiBZwO9Uzeu-65" value="监听订单重推消息&lt;br&gt;（forcePush）" style="rounded=1;whiteSpace=wrap;html=1;fontSize=16;glass=0;strokeWidth=1;shadow=0;fillColor=#dae8fc;strokeColor=#6c8ebf;" vertex="1" parent="WIyWlLk6GJQsqaUBKTNV-1">
          <mxGeometry x="-520" y="472.5" width="130" height="60" as="geometry" />
        </mxCell>
        <mxCell id="7NL93eEpFQiBZwO9Uzeu-67" value="&lt;span style=&quot;font-size: 16px&quot;&gt;商家号路由&lt;/span&gt;" style="verticalLabelPosition=bottom;verticalAlign=top;html=1;shape=process;whiteSpace=wrap;rounded=1;size=0.14;arcSize=6;sketch=0;fontSize=12;strokeColor=#0e8088;fillColor=#b0e3e6;" vertex="1" parent="WIyWlLk6GJQsqaUBKTNV-1">
          <mxGeometry x="-340" y="270" width="100" height="60" as="geometry" />
        </mxCell>
        <mxCell id="7NL93eEpFQiBZwO9Uzeu-68" value="&lt;span style=&quot;font-size: 16px&quot;&gt;商家号路由&lt;/span&gt;" style="verticalLabelPosition=bottom;verticalAlign=top;html=1;shape=process;whiteSpace=wrap;rounded=1;size=0.14;arcSize=6;sketch=0;fontSize=12;strokeColor=#0e8088;fillColor=#b0e3e6;" vertex="1" parent="WIyWlLk6GJQsqaUBKTNV-1">
          <mxGeometry x="-340" y="472.5" width="100" height="60" as="geometry" />
        </mxCell>
        <mxCell id="7NL93eEpFQiBZwO9Uzeu-69" value="订单状态是否可推送" style="rhombus;whiteSpace=wrap;html=1;shadow=0;fontFamily=Helvetica;fontSize=16;align=center;strokeWidth=1;spacing=6;spacingTop=-4;fillColor=#FFF2CC;strokeColor=#FFF2CC;" vertex="1" parent="WIyWlLk6GJQsqaUBKTNV-1">
          <mxGeometry x="-190" y="472.5" width="100" height="80" as="geometry" />
        </mxCell>
        <mxCell id="7NL93eEpFQiBZwO9Uzeu-70" value="是" style="rounded=0;html=1;jettySize=auto;orthogonalLoop=1;fontSize=11;endArrow=classic;endFill=1;endSize=8;strokeWidth=1;shadow=0;labelBackgroundColor=none;edgeStyle=orthogonalEdgeStyle;strokeColor=#182E3E;fontColor=#1A1A1A;exitX=1;exitY=0.5;exitDx=0;exitDy=0;" edge="1" parent="WIyWlLk6GJQsqaUBKTNV-1" source="7NL93eEpFQiBZwO9Uzeu-69">
          <mxGeometry y="20" relative="1" as="geometry">
            <mxPoint as="offset" />
            <mxPoint x="-450" y="442.5" as="sourcePoint" />
            <mxPoint x="-39.99999999999977" y="512.5" as="targetPoint" />
          </mxGeometry>
        </mxCell>
        <mxCell id="7NL93eEpFQiBZwO9Uzeu-71" value="定义推送&lt;br&gt;步骤" style="rounded=1;whiteSpace=wrap;html=1;fontSize=16;glass=0;strokeWidth=1;shadow=0;fillColor=#dae8fc;strokeColor=#6c8ebf;" vertex="1" parent="WIyWlLk6GJQsqaUBKTNV-1">
          <mxGeometry x="-40" y="492.5" width="96" height="40" as="geometry" />
        </mxCell>
      </root>
    </mxGraphModel>
  </diagram>
</mxfile>
